<svg width="30" height="26" viewBox="0 0 30 26" fill="none" xmlns="http://www.w3.org/2000/svg">
<g id="Group">
<path id="Vector" d="M0.0187096 7.83218C0.0226346 7.8484 0.0218496 7.86489 0.0270828 7.88085C0.0278678 7.88294 0.0273445 7.88504 0.0281295 7.88687C0.0522027 7.95752 0.0898817 8.01953 0.134891 8.07526C0.138816 8.08024 0.1396 8.08625 0.143525 8.09096L14.5233 24.9713C14.528 24.9768 14.5353 24.9789 14.5403 24.9841C14.5892 25.0378 14.6471 25.0799 14.7109 25.1134C14.7295 25.1231 14.7468 25.132 14.7661 25.1398C14.8396 25.1699 14.9171 25.1914 14.9995 25.1914C15.0819 25.1914 15.1594 25.1702 15.2329 25.1401C15.2523 25.1322 15.2696 25.1233 15.2881 25.1136C15.352 25.0799 15.4098 25.038 15.4587 24.9844C15.4637 24.9791 15.471 24.9771 15.4757 24.9716L29.8555 8.09123C29.8594 8.08652 29.8605 8.08024 29.8642 8.07553C29.9089 8.01979 29.9468 7.95778 29.9709 7.88713C29.9717 7.88504 29.9712 7.88294 29.972 7.88111C29.9772 7.86515 29.9764 7.84866 29.9803 7.83244C29.9942 7.7754 30.0021 7.71836 29.9997 7.66105C29.9986 7.63672 29.9934 7.61421 29.9898 7.59014C29.9819 7.54043 29.9693 7.49281 29.9497 7.44649C29.9398 7.42294 29.9298 7.4007 29.917 7.3782C29.8893 7.32979 29.854 7.28662 29.8134 7.24632C29.8021 7.23533 29.7972 7.22041 29.7849 7.20995C29.7812 7.20681 29.7762 7.20628 29.7726 7.20315C29.7679 7.19948 29.7652 7.19399 29.7605 7.19059L21.6332 0.9387C21.5236 0.853923 21.3898 0.808655 21.2517 0.808655H8.74818C8.61029 0.808655 8.47658 0.854184 8.3672 0.938439L0.239859 7.19032C0.235149 7.19399 0.232532 7.19922 0.227822 7.20288C0.223898 7.20602 0.219187 7.20655 0.215524 7.20969C0.203227 7.22015 0.198255 7.23481 0.187003 7.24606C0.146184 7.28635 0.111122 7.32927 0.0833836 7.37794C0.0705619 7.40044 0.0603572 7.42268 0.0506758 7.44623C0.0310511 7.49255 0.0184911 7.54016 0.010641 7.58988C0.0069778 7.61395 0.00148296 7.63646 0.000697886 7.66079C-0.00218041 7.7181 0.00566948 7.77488 0.0195375 7.83218H0.0187096ZM7.70194 8.31102L12.953 21.1997L1.97408 8.31102H7.70194ZM28.0247 8.31102L17.0457 21.1997L22.2968 8.31102H28.0247ZM20.947 8.31102L14.9994 22.9092L9.05183 8.31102H20.947ZM9.73897 7.06053L14.9991 2.27865L20.2593 7.06053H9.73897ZM27.5403 7.06053H22.1179L16.6162 2.05887H21.0386L27.5403 7.06053ZM8.95993 2.05887H13.3823L7.88059 7.06053H2.45819L8.95993 2.05887Z" fill="black"/>
</g>
</svg>
