<svg width="14" height="16" viewBox="0 0 14 16" fill="none" xmlns="http://www.w3.org/2000/svg">
<g id="Group">
<path id="Vector" d="M1.10462 15.064C1.35207 15.341 1.7073 15.5 2.07876 15.5H11.921C12.2924 15.5 12.6476 15.341 12.8951 15.064C13.1426 14.7868 13.2607 14.4164 13.2192 14.0475L12.1638 4.69511C12.1458 4.53698 12.0121 4.4177 11.8532 4.4177H9.7056V3.20579C9.7056 1.71374 8.49199 0.5 6.99991 0.5C5.50782 0.5 4.29384 1.71374 4.29384 3.20569V4.4176H2.14637C1.98733 4.4176 1.85366 4.53688 1.83574 4.69501L0.780776 14.0474C0.739183 14.4163 0.857159 14.7868 1.10462 15.064ZM4.91862 3.20543C4.91862 2.05825 5.85221 1.12479 6.99963 1.12479C8.14681 1.12479 9.0804 2.05839 9.0804 3.20557V4.41747L4.91852 4.41734L4.91862 3.20543ZM1.40161 14.1174L2.42517 5.04229H4.29353V7.14097C4.29353 7.31375 4.43335 7.45343 4.60599 7.45343C4.77877 7.45343 4.91845 7.31362 4.91845 7.14097V5.04229H9.08033V7.14097C9.08033 7.31375 9.22015 7.45343 9.39279 7.45343C9.56557 7.45343 9.70525 7.31362 9.70525 7.14097V5.04229H11.5736L12.4964 13.2214L12.5388 13.6212L12.567 13.8462L12.5976 14.1172C12.6198 14.3125 12.5598 14.5005 12.4289 14.6473C12.2978 14.7939 12.1172 14.8747 11.9206 14.8747H2.07842C1.88184 14.8747 1.70121 14.7939 1.57029 14.6474C1.43937 14.5007 1.37924 14.3127 1.40161 14.1174Z" fill="black"/>
</g>
</svg>
