<svg width="40" height="40" viewBox="0 0 40 40" fill="none" xmlns="http://www.w3.org/2000/svg">
<g id="E-commerce/Delievery" clip-path="url(#clip0_637_19117)">
<path id="Vector" d="M29.9898 27.756L27.1587 18.2318L30.0311 15.3595C31.7198 13.6707 32.1799 12.0443 32.2689 10.9778C32.3672 9.80925 32.0551 9.04313 32.0191 8.96006C31.9627 8.82781 31.8578 8.7229 31.7256 8.66655C31.5995 8.61236 28.5965 7.3774 25.3228 10.6512L22.4501 13.5239L12.9267 10.6928C11.6257 10.306 10.2217 10.6624 9.2623 11.6217C9.14596 11.7381 9.0863 11.8998 9.10039 12.0637C9.11348 12.2276 9.20016 12.3776 9.3329 12.4732L17.5974 18.3765L12.5508 23.423L9.4587 22.5042C8.70979 22.2816 7.90137 22.4862 7.34868 23.0389C7.23234 23.1552 7.17268 23.3169 7.18677 23.4808C7.20036 23.6452 7.28654 23.7947 7.41929 23.8904L12.8867 27.7957L16.7924 33.2635C16.8107 33.2887 16.8302 33.3122 16.8519 33.3339C16.9451 33.4271 17.0689 33.4853 17.202 33.496C17.3659 33.5098 17.5274 33.4503 17.6438 33.3339C18.1963 32.7814 18.401 31.9728 18.1783 31.2241L17.2591 28.131L22.3057 23.0844L28.2098 31.3498C28.3061 31.4832 28.4552 31.569 28.6193 31.5823C28.7832 31.596 28.9449 31.5364 29.0613 31.42C30.0207 30.4607 30.377 29.0566 29.9902 27.7557L29.9898 27.756ZM22.8328 21.8959C22.737 21.7636 22.5877 21.677 22.4233 21.6634C22.2592 21.6494 22.0976 21.7089 21.9813 21.8253L16.2317 27.5748C16.0864 27.7202 16.0327 27.9333 16.091 28.1302L17.1053 31.5429C17.1339 31.6388 17.147 31.7361 17.147 31.8329L13.7442 27.0687C13.7263 27.0442 13.706 27.0203 13.6843 26.9986C13.6626 26.9769 13.6386 26.9569 13.6139 26.9391L8.84977 23.5363C8.94655 23.5363 9.04384 23.5494 9.13979 23.5781L12.5511 24.592C12.748 24.6503 12.9611 24.5966 13.1064 24.4512L18.8568 18.7008C18.9732 18.5845 19.0329 18.4228 19.0188 18.2588C19.0057 18.0949 18.9202 17.9468 18.7862 17.8493L10.5964 11.9996C11.1988 11.6547 11.9239 11.563 12.6085 11.7664L22.451 14.6924C22.6479 14.7508 22.861 14.6971 23.0063 14.5517L26.115 11.4431C28.3804 9.17772 30.3988 9.4492 31.06 9.62404C31.1234 9.87147 31.2012 10.3128 31.1531 10.8842C31.0479 12.1472 30.3862 13.4207 29.2394 14.5675L26.1312 17.6757C25.9859 17.821 25.9322 18.0341 25.9905 18.231L28.9171 28.0747C29.1206 28.7591 29.0284 29.4847 28.6839 30.0868L22.8328 21.8959Z" fill="black"/>
</g>
<defs>
<clipPath id="clip0_637_19117">
<rect width="40" height="40" fill="white"/>
</clipPath>
</defs>
</svg>
