<svg width="30" height="30" viewBox="0 0 30 30" fill="none" xmlns="http://www.w3.org/2000/svg">
<g id="Group">
<path id="Vector" d="M0.295803 8.3254V10.6274C0.295803 11.6614 1.13693 12.5025 2.17087 12.5025H2.31919V28.1249C2.31919 29.1589 3.16031 30 4.19425 30H25.806C26.8399 30 27.681 29.1589 27.681 28.1249V12.5025H27.8293C28.8633 12.5025 29.7044 11.6614 29.7044 10.6274V8.3254C29.7044 7.29146 28.8633 6.45034 27.8293 6.45034H23.4429C25.332 5.2485 25.834 3.72164 24.9282 1.90033C23.9052 -0.14443 22.1065 -0.540851 19.585 0.72021C17.6074 1.70165 15.8574 4.32932 14.9998 5.78695C14.1422 4.3294 12.3929 1.70204 10.4165 0.720835C7.89325 -0.541085 6.09451 -0.14529 5.07088 1.90158C4.16569 3.72141 4.66742 5.24795 6.5571 6.45041H2.17039C1.13644 6.45041 0.295319 7.29154 0.295319 8.32548L0.295803 8.3254ZM1.54585 10.6274V8.3254C1.54585 7.98084 1.82601 7.70038 2.17087 7.70038H14.3752V11.2525H2.17087C1.82601 11.2525 1.54585 10.972 1.54585 10.6274ZM3.5692 28.1249V12.5025H14.3751V28.75H4.19422C3.84936 28.75 3.5692 28.4698 3.5692 28.1249ZM26.431 28.1249C26.431 28.4698 26.1508 28.75 25.8059 28.75H15.6251V12.5025H26.431V28.1249ZM28.4543 8.32579V10.6278C28.4543 10.9724 28.1741 11.2528 27.8293 11.2528H15.6249V7.70077H27.8293C28.1741 7.70077 28.4543 7.98123 28.4543 8.32579ZM20.1423 1.83939C22.502 0.659505 23.2997 1.4399 23.8095 2.45862C24.3191 3.48279 24.4656 4.59275 22.1102 5.77053C21.4433 6.10166 20.5428 6.32994 19.4355 6.45079H16.0617C16.8457 5.11527 18.4467 2.68106 20.1423 1.83939ZM7.89185 5.77141C5.53458 4.59277 5.68107 3.48281 6.19015 2.4598C6.69981 1.44047 7.497 0.658567 9.85974 1.83997C11.551 2.67984 13.153 5.11462 13.9376 6.45076H10.5647C9.45746 6.3299 8.55688 6.10161 7.89185 5.77141Z" fill="black"/>
</g>
</svg>
