<svg width="26" height="30" viewBox="0 0 26 30" fill="none" xmlns="http://www.w3.org/2000/svg">
<g id="Group">
<path id="Vector" d="M1.44198 26.8064L4.91081 26.3188L6.14832 29.5938C6.23595 29.8187 6.44207 29.9749 6.67959 29.9937H6.73583C6.95451 29.9937 7.1609 29.8812 7.27338 29.6874L12.2983 21.2063C12.5296 21.2314 12.7608 21.25 12.9983 21.25C13.2358 21.25 13.4671 21.2312 13.7046 21.2126L18.7296 29.6937C18.842 29.8875 19.0484 30 19.2671 30H19.3233C19.5609 29.9812 19.767 29.825 19.8546 29.6L21.0921 26.3251L24.561 26.8126C24.7985 26.8501 25.036 26.7376 25.1673 26.5377C25.2986 26.3376 25.3049 26.0815 25.1861 25.8751L20.5609 18.0751C22.4547 16.1562 23.6234 13.5249 23.6234 10.6253C23.6234 4.76902 18.8546 0 12.9982 0C7.14177 0 2.37288 4.76889 2.37288 10.6253C2.37288 13.5255 3.54161 16.1567 5.43544 18.0751L0.816689 25.8691C0.691652 26.0752 0.704208 26.3316 0.835522 26.5317C0.966572 26.7315 1.20409 26.844 1.44161 26.8066L1.44198 26.8064ZM20.7673 25.0125C20.4798 24.9688 20.1986 25.1375 20.0984 25.4124L19.1421 27.9375L15.061 21.0434C16.761 20.706 18.3111 19.9683 19.6172 18.9246L23.4486 25.3872L20.7673 25.0125ZM12.9987 1.25005C18.1676 1.25005 22.3738 5.45623 22.3738 10.6251C22.3738 15.4688 18.6863 19.4624 13.967 19.9499H13.9608C13.6422 19.9811 13.3233 19.9999 12.9984 19.9999C12.6735 19.9999 12.3547 19.9811 12.0358 19.9499H12.0295C7.31086 19.4623 3.62345 15.4685 3.62345 10.6251C3.62345 5.45623 7.82963 1.25005 12.9985 1.25005H12.9987ZM6.38625 18.9254C7.69259 19.9691 9.24242 20.7068 10.9425 21.0442L6.855 27.9382L5.89867 25.4132C5.79248 25.1382 5.51127 24.9695 5.22981 25.0132L2.55491 25.3883L6.38625 18.9254Z" fill="black"/>
</g>
</svg>
