<svg width="16" height="16" viewBox="0 0 16 16" fill="none" xmlns="http://www.w3.org/2000/svg">
<g id="Group">
<path id="Vector" d="M5.98806 11.4783C7.34861 11.4783 8.62979 10.9813 9.63645 10.082L14.8318 15.2777C14.9546 15.4005 15.1536 15.4005 15.2764 15.2777C15.3992 15.1549 15.3992 14.9558 15.2764 14.833L10.0804 9.63702C12.0008 7.48431 11.9344 4.17287 9.86934 2.10781C8.83254 1.07087 7.4541 0.5 5.98784 0.5C4.52165 0.5 3.14322 1.07097 2.10634 2.10781C-0.0337384 4.24789 -0.0337384 7.7303 2.10634 9.87048C3.14315 10.9074 4.52181 11.4783 5.98806 11.4783ZM2.55124 2.55242C3.46937 1.6343 4.68987 1.12885 5.98806 1.12885C7.28622 1.12885 8.50676 1.63443 9.42489 2.55242C11.3198 4.44736 11.3198 7.53113 9.42489 9.42607C8.50676 10.3442 7.28625 10.8496 5.98806 10.8496C4.68991 10.8496 3.46937 10.3441 2.55124 9.42607C0.656173 7.53113 0.656173 4.44736 2.55124 2.55242Z" fill="black"/>
</g>
</svg>
